<svg xmlns="http://www.w3.org/2000/svg" viewBox="0 0 120 120" role="img" aria-label="LexiLand mascot">
  <defs>
    <linearGradient id="body" x1="20%" x2="80%" y1="0%" y2="100%">
      <stop offset="0%" stop-color="#60a5fa"/>
      <stop offset="55%" stop-color="#2563eb"/>
      <stop offset="100%" stop-color="#1d4ed8"/>
    </linearGradient>
    <linearGradient id="cover" x1="0%" x2="100%" y1="0%" y2="100%">
      <stop offset="0%" stop-color="#fde68a"/>
      <stop offset="100%" stop-color="#f59e0b"/>
    </linearGradient>
  </defs>
  <path d="M60 18c-22 0-36 16-36 36 0 14 6 26 14 33v8c0 4 3 7 7 7h30c4 0 7-3 7-7v-8c8-7 14-19 14-33 0-20-14-36-36-36z" fill="url(#body)"/>
  <circle cx="44" cy="52" fill="#fff" r="9"/>
  <circle cx="76" cy="52" fill="#fff" r="9"/>
  <circle cx="46" cy="52" fill="#0f172a" r="4.5"/>
  <circle cx="78" cy="52" fill="#0f172a" r="4.5"/>
  <path d="M48 66c4 4 20 4 24 0" fill="none" stroke="#1e3a8a" stroke-linecap="round" stroke-width="3"/>
  <rect fill="url(#cover)" height="24" rx="3" width="52" x="34" y="72"/>
  <path d="M60 6l2.2 4.5 5 .7-3.6 3.5.9 5-4.5-2.4-4.5 2.4.9-5-3.6-3.5 5-.7z" fill="#fde047" stroke="#f59e0b" stroke-width="1"/>
</svg>
